name ./resultDataOpenSim/trcMotMarkerGrf/sub06/grf-01-07.mot
datacolumns 19
datarows 15
range 1.46400000 1.52000000
endheader

                time	     ground_force_vx	     ground_force_vy	     ground_force_vz	     ground_force_px	     ground_force_py	     ground_force_pz	   l_ground_force_vx	   l_ground_force_vy	   l_ground_force_vz	   l_ground_force_px	   l_ground_force_py	   l_ground_force_pz	     ground_torque_x	     ground_torque_y	     ground_torque_z	   l_ground_torque_x	   l_ground_torque_y	   l_ground_torque_z	
          1.46400000	         68.45704134	        558.42040427	        -10.17791779	          0.85452470	          0.00000000	          0.10706301	          0.00000000	          0.00000000	          0.00000000	          0.00000000	          0.00000000	          0.00000000	          0.00000000	          3.16781006	          0.00000000	          0.00000000	          0.00000000	          0.00000000	
          1.46800000	         72.54717547	        571.52202991	        -10.36407933	          0.85477490	          0.00000000	          0.10684151	          0.00000000	          0.00000000	          0.00000000	          0.00000000	          0.00000000	          0.00000000	          0.00000000	          3.24065864	          0.00000000	          0.00000000	          0.00000000	          0.00000000	
          1.47200000	         77.34366514	        584.80412568	        -11.76938607	          0.85492692	          0.00000000	          0.10670002	          0.00000000	          0.00000000	          0.00000000	          0.00000000	          0.00000000	          0.00000000	          0.00000000	          3.34674710	          0.00000000	          0.00000000	          0.00000000	          0.00000000	
          1.47600000	         82.83528450	        598.19227608	        -14.23317044	          0.85499181	          0.00000000	          0.10662525	          0.00000000	          0.00000000	          0.00000000	          0.00000000	          0.00000000	          0.00000000	          0.00000000	          3.47665430	          0.00000000	          0.00000000	          0.00000000	          0.00000000	
          1.48000000	         88.88802959	        611.59783208	        -17.40494158	          0.85499254	          0.00000000	          0.10659528	          0.00000000	          0.00000000	          0.00000000	          0.00000000	          0.00000000	          0.00000000	          0.00000000	          3.61680419	          0.00000000	          0.00000000	          0.00000000	          0.00000000	
          1.48400000	         95.29009658	        624.92931023	        -20.80885837	          0.85496087	          0.00000000	          0.10658485	          0.00000000	          0.00000000	          0.00000000	          0.00000000	          0.00000000	          0.00000000	          0.00000000	          3.75217004	          0.00000000	          0.00000000	          0.00000000	          0.00000000	
          1.48800000	        101.81520339	        638.10128353	        -23.93465092	          0.85494020	          0.00000000	          0.10656993	          0.00000000	          0.00000000	          0.00000000	          0.00000000	          0.00000000	          0.00000000	          0.00000000	          3.86807235	          0.00000000	          0.00000000	          0.00000000	          0.00000000	
          1.49200000	        108.27885918	        651.03315835	        -26.33778221	          0.85495851	          0.00000000	          0.10652788	          0.00000000	          0.00000000	          0.00000000	          0.00000000	          0.00000000	          0.00000000	          0.00000000	          3.95126164	          0.00000000	          0.00000000	          0.00000000	          0.00000000	
          1.49600000	        114.57492180	        663.63092483	        -27.72553335	          0.85503467	          0.00000000	          0.10643891	          0.00000000	          0.00000000	          0.00000000	          0.00000000	          0.00000000	          0.00000000	          0.00000000	          3.99116654	          0.00000000	          0.00000000	          0.00000000	          0.00000000	
          1.50000000	        120.68391364	        675.75488193	        -28.00622058	          0.85517429	          0.00000000	          0.10629280	          0.00000000	          0.00000000	          0.00000000	          0.00000000	          0.00000000	          0.00000000	          0.00000000	          3.98192635	          0.00000000	          0.00000000	          0.00000000	          0.00000000	
          1.50400000	        126.65210759	        687.19258545	        -27.29154290	          0.85535566	          0.00000000	          0.10608868	          0.00000000	          0.00000000	          0.00000000	          0.00000000	          0.00000000	          0.00000000	          0.00000000	          3.92483324	          0.00000000	          0.00000000	          0.00000000	          0.00000000	
          1.50800000	        132.55513740	        697.65731545	        -25.85779327	          0.85555496	          0.00000000	          0.10584701	          0.00000000	          0.00000000	          0.00000000	          0.00000000	          0.00000000	          0.00000000	          0.00000000	          3.82989333	          0.00000000	          0.00000000	          0.00000000	          0.00000000	
          1.51200000	        138.46520438	        706.83270773	        -24.08507332	          0.85575141	          0.00000000	          0.10558774	          0.00000000	          0.00000000	          0.00000000	          0.00000000	          0.00000000	          0.00000000	          0.00000000	          3.71517333	          0.00000000	          0.00000000	          0.00000000	          0.00000000	
          1.51600000	        144.43010125	        714.45005993	        -22.38798608	          0.85592627	          0.00000000	          0.10532657	          0.00000000	          0.00000000	          0.00000000	          0.00000000	          0.00000000	          0.00000000	          0.00000000	          3.60354959	          0.00000000	          0.00000000	          0.00000000	          0.00000000	
          1.52000000	        150.46612663	        720.33899304	        -21.14080228	          0.85607718	          0.00000000	          0.10507331	          0.00000000	          0.00000000	          0.00000000	          0.00000000	          0.00000000	          0.00000000	          0.00000000	          3.51767530	          0.00000000	          0.00000000	          0.00000000	          0.00000000	
